<svg width="56" height="60" viewBox="0 0 56 60" fill="none" xmlns="http://www.w3.org/2000/svg">
<path fill-rule="evenodd" clip-rule="evenodd" d="M28.0883 19.5C22.7379 19.5 18.4005 24.201 18.4005 30C18.4005 35.799 22.7379 40.5 28.0883 40.5C33.4387 40.5 37.7761 35.799 37.7761 30C37.7761 24.201 33.4387 19.5 28.0883 19.5ZM22.5524 30C22.5524 26.6863 25.0309 24 28.0883 24C31.1457 24 33.6242 26.6863 33.6242 30C33.6242 33.3137 31.1457 36 28.0883 36C25.0309 36 22.5524 33.3137 22.5524 30Z" fill="white"/>
<path fill-rule="evenodd" clip-rule="evenodd" d="M26.9663 3C24.9167 3 23.089 4.39813 22.4023 6.4912L20.9234 10.9994C20.912 11.0341 20.8876 11.062 20.8561 11.0762C20.8246 11.0903 20.7891 11.0893 20.7584 11.0734L16.7715 9.01912C14.9204 8.06533 12.7158 8.47747 11.2665 10.0483L9.67984 11.768C8.23055 13.3388 7.85029 15.7282 8.7303 17.7344L10.6257 22.0556C10.6403 22.0889 10.6413 22.1274 10.6282 22.1615C10.6152 22.1956 10.5894 22.2221 10.5574 22.2345L6.39791 23.8374C4.46674 24.5816 3.17676 26.5626 3.17676 28.784V31.216C3.17676 33.4374 4.46675 35.4184 6.39791 36.1626L10.5574 37.7655C10.5894 37.7779 10.6152 37.8044 10.6282 37.8385C10.6412 37.8726 10.6403 37.9111 10.6257 37.9444L8.7303 42.2656C7.85028 44.2718 8.23054 46.6612 9.67983 48.232L11.2665 49.9517C12.7158 51.5225 14.9204 51.9347 16.7715 50.9809L20.7584 48.9265C20.7891 48.9107 20.8246 48.9097 20.8561 48.9238C20.8875 48.938 20.912 48.9659 20.9234 49.0006L22.4023 53.5088C23.089 55.6019 24.9167 57 26.9663 57H29.2102C31.2598 57 33.0876 55.6019 33.7743 53.5088L35.2532 49.0006C35.2646 48.9659 35.289 48.938 35.3205 48.9238C35.3519 48.9097 35.3875 48.9107 35.4182 48.9266L39.4051 50.9809C41.2562 51.9347 43.4608 51.5225 44.9101 49.9517L46.4967 48.232C47.946 46.6612 48.3263 44.2718 47.4463 42.2656L45.5509 37.9444C45.5362 37.9111 45.5353 37.8726 45.5484 37.8385C45.5614 37.8044 45.5871 37.7779 45.6192 37.7655L49.7787 36.1626C51.7098 35.4184 52.9998 33.4375 52.9998 31.216V28.784C52.9998 26.5626 51.7098 24.5816 49.7787 23.8374L45.6192 22.2345C45.5871 22.2221 45.5614 22.1956 45.5484 22.1615C45.5353 22.1274 45.5363 22.0889 45.5509 22.0556L47.4463 17.7344C48.3263 15.7282 47.946 13.3388 46.4968 11.768L44.9101 10.0483C43.4608 8.47748 41.2562 8.06534 39.4051 9.01913L35.4182 11.0735C35.3875 11.0893 35.352 11.0903 35.3205 11.0762C35.289 11.062 35.2646 11.0341 35.2532 10.9994L33.7743 6.4912C33.0876 4.39813 31.2599 3 29.2102 3H26.9663ZM26.3143 7.99874C26.4124 7.69973 26.6735 7.5 26.9663 7.5H29.2102C29.503 7.5 29.7642 7.69973 29.8622 7.99874L31.3412 12.5069C31.7462 13.7414 32.6147 14.7322 33.7316 15.2336C34.8485 15.735 36.1091 15.7001 37.2009 15.1376L41.1878 13.0832C41.4522 12.947 41.7672 13.0059 41.9742 13.2303L43.5609 14.95C43.7679 15.1744 43.8223 15.5157 43.6966 15.8023L41.8011 20.1235C41.2821 21.3068 41.2499 22.6731 41.7125 23.8836C42.1751 25.0941 43.0893 26.0355 44.2283 26.4744L48.3877 28.0773C48.6636 28.1836 48.8479 28.4666 48.8479 28.784V31.216C48.8479 31.5334 48.6636 31.8164 48.3877 31.9227L44.2283 33.5256C43.0893 33.9645 42.1751 34.9059 41.7125 36.1164C41.2499 37.3269 41.2821 38.6932 41.8011 39.8765L43.6965 44.1977C43.8223 44.4843 43.7679 44.8257 43.5609 45.0501L41.9742 46.7698C41.7672 46.9942 41.4522 47.053 41.1878 46.9168L37.2009 44.8624C36.1091 44.2999 34.8485 44.265 33.7316 44.7664C32.6147 45.2678 31.7462 46.2586 31.3412 47.4931L29.8622 52.0013C29.7642 52.3003 29.503 52.5 29.2102 52.5H26.9663C26.6735 52.5 26.4124 52.3003 26.3143 52.0013L24.8354 47.4931C24.4304 46.2586 23.5618 45.2678 22.445 44.7664C21.3281 44.265 20.0675 44.2999 18.9757 44.8624L14.9888 46.9168C14.7243 47.053 14.4094 46.9941 14.2024 46.7697L12.6157 45.05C12.4086 44.8256 12.3543 44.4843 12.48 44.1977L14.3755 39.8765C14.8945 38.6932 14.9267 37.3269 14.4641 36.1164C14.0015 34.9059 13.0873 33.9645 11.9483 33.5256L7.78885 31.9227C7.51296 31.8164 7.32868 31.5334 7.32868 31.216V28.784C7.32868 28.4666 7.51296 28.1836 7.78885 28.0773L11.9483 26.4744C13.0873 26.0355 14.0015 25.0941 14.4641 23.8836C14.9267 22.6731 14.8945 21.3068 14.3755 20.1235L12.48 15.8023C12.3543 15.5157 12.4087 15.1743 12.6157 14.9499L14.2024 13.2302C14.4094 13.0058 14.7244 12.947 14.9888 13.0832L18.9757 15.1376C20.0675 15.7001 21.3281 15.735 22.445 15.2336C23.5618 14.7322 24.4304 13.7414 24.8354 12.5069L26.3143 7.99874Z" fill="white"/>
</svg>
