<svg width="56" height="60" viewBox="0 0 56 60" fill="none" xmlns="http://www.w3.org/2000/svg">
<path fill-rule="evenodd" clip-rule="evenodd" d="M18.5531 8.25195C18.5531 5.35246 20.7217 3.00195 23.397 3.00195H33.0848C35.76 3.00195 37.9287 5.35246 37.9287 8.25195V10.4983H42.7726C45.4478 10.4983 47.6165 12.8488 47.6165 15.7483V20.2483C47.6165 21.491 46.6871 22.4983 45.5405 22.4983H44.8486V51.7483C44.8486 54.6478 42.6799 56.9983 40.0047 56.9983H16.4771C13.8019 56.9983 11.6332 54.6478 11.6332 51.7483V22.4983H10.9412C9.79467 22.4983 8.86523 21.491 8.86523 20.2483V15.7483C8.86523 12.8488 11.0339 10.4983 13.7091 10.4983H18.5531V8.25195ZM33.7768 10.4983H22.705V8.25195C22.705 7.83774 23.0148 7.50195 23.397 7.50195H33.0848C33.467 7.50195 33.7768 7.83774 33.7768 8.25195V10.4983ZM20.5099 14.9983H13.7091C13.327 14.9983 13.0172 15.3341 13.0172 15.7483V17.9983H13.7068L13.7091 17.9983H42.7726L42.775 17.9983H43.4646V15.7483C43.4646 15.3341 43.1548 14.9983 42.7726 14.9983H35.9718C35.9324 15.0007 35.8927 15.002 35.8527 15.002H20.629C20.589 15.002 20.5493 15.0007 20.5099 14.9983ZM15.7851 22.4983V51.7483C15.7851 52.1625 16.0949 52.4983 16.4771 52.4983H40.0047C40.3868 52.4983 40.6966 52.1625 40.6966 51.7483V22.4983H15.7851ZM21.321 26.9983C22.4675 26.9983 23.397 28.0057 23.397 29.2483V45.7483C23.397 46.991 22.4675 47.9983 21.321 47.9983C20.1745 47.9983 19.245 46.991 19.245 45.7483V29.2483C19.245 28.0057 20.1745 26.9983 21.321 26.9983ZM28.2409 26.9983C29.3874 26.9983 30.3168 28.0057 30.3168 29.2483V45.7483C30.3168 46.991 29.3874 47.9983 28.2409 47.9983C27.0943 47.9983 26.1649 46.991 26.1649 45.7483V29.2483C26.1649 28.0057 27.0943 26.9983 28.2409 26.9983ZM35.1607 26.9983C36.3073 26.9983 37.2367 28.0057 37.2367 29.2483V45.7483C37.2367 46.991 36.3073 47.9983 35.1607 47.9983C34.0142 47.9983 33.0848 46.991 33.0848 45.7483V29.2483C33.0848 28.0057 34.0142 26.9983 35.1607 26.9983Z" fill="white"/>
</svg>
